<svg width="228" height="260" viewBox="0 0 228 260" fill="none" xmlns="http://www.w3.org/2000/svg">
<path d="M226.997 1C227.28 42.6874 205.521 126.062 116.227 126.062C26.9327 126.062 8 209.791 8 249" stroke="#0077FF" stroke-width="2" stroke-linecap="round" stroke-dasharray="10 10"/>
<path d="M7.29289 259.707C7.68342 260.098 8.31658 260.098 8.70711 259.707L15.0711 253.343C15.4616 252.953 15.4616 252.319 15.0711 251.929C14.6805 251.538 14.0474 251.538 13.6569 251.929L8 257.586L2.34315 251.929C1.95262 251.538 1.31946 251.538 0.928932 251.929C0.538408 252.319 0.538408 252.953 0.928932 253.343L7.29289 259.707ZM7 247L7 259H9V247H7Z" fill="#0077FF"/>
</svg>
