<svg width="315" height="100" viewBox="0 0 315 100" fill="none" xmlns="http://www.w3.org/2000/svg">
<path d="M123.503 42.3211L127.152 39.2654L127.104 33.7966V28.3269L124.145 26.2078C121.58 24.2861 120.643 23.9415 116.155 23.1531C108.906 21.8227 108.413 21.6747 108.413 20.6892C108.413 19.1618 109.646 18.6693 112.9 18.8172C115.958 18.965 116.056 19.0141 116.5 20.5906C117.042 22.5123 117.783 22.7593 122.714 22.5623L126.413 22.4138L126.561 18.866L126.709 15.3679L123.306 12.6082L119.903 9.84938L112.062 9.89821H104.221L100.917 12.658L97.5635 15.3679V25.4197L100.571 28.031L103.53 30.6424L109.547 31.6287C112.849 32.1704 115.757 32.8101 116.007 33.0076C116.253 33.254 116.303 33.9935 116.105 34.6834C115.81 35.9151 115.662 35.9646 112.21 35.9646C108.61 35.9646 108.61 35.9645 107.87 34.3386L107.18 32.7615L102.396 32.614L97.5635 32.4656V39.364L101.213 42.3211L104.862 45.3269H119.854L123.503 42.3211ZM147.767 41.0398C147.915 37.3935 147.816 36.9496 146.879 36.4568C146.09 36.0134 145.893 35.4224 145.893 33.2547V30.5447H153.29V33.2547C153.29 35.4221 153.092 36.0134 152.304 36.4568C151.367 36.9496 151.268 37.3935 151.416 41.0398L151.563 45.0799H167.838V36.7527L166.26 36.2605L164.632 35.8162V18.8172L166.358 18.5213L168.084 18.1765V9.84938H151.317V13.9881C151.317 17.6836 151.416 18.1274 152.304 18.3738C153.142 18.5709 153.29 19.0635 153.29 21.1326V23.6463H149.689C147.668 23.6462 145.941 23.5475 145.843 23.449C145.744 23.3012 145.695 22.2169 145.794 20.9851C145.942 19.3101 146.238 18.6697 146.928 18.4724C147.766 18.1768 147.865 17.6343 147.865 13.9881V9.84938H131.098V18.1765L132.824 18.5213L134.55 18.8172V35.8162L132.972 36.2605L131.345 36.7527V45.0799H147.618L147.767 41.0398ZM198.216 42.074L202.112 38.822V15.9099L198.364 12.9041L194.616 9.84938H179.624L176.073 12.8054C174.101 14.4801 172.524 16.0564 172.522 16.4021C172.375 25.0248 172.572 39.1658 172.868 39.4627C173.065 39.6598 174.841 41.0889 176.715 42.5672L180.167 45.3269H194.32L198.216 42.074ZM230.666 40.4978C231.504 37.8863 232.441 34.6339 232.836 33.3035L233.526 30.8894L235.055 36.7527C235.893 39.9555 236.731 43.2079 236.929 43.947L237.225 45.3269H243.783C248.419 45.3269 250.441 45.1293 250.786 44.7351C251.082 44.3902 252.216 40.5471 253.351 36.1619C254.485 31.8257 256.063 26.1587 256.803 23.5965C258.134 19.2604 258.282 18.9155 259.762 18.5213L261.34 18.0779L261.192 14.0867L261.044 10.0955H247.235L247.088 13.7908C246.94 16.9936 247.087 17.5853 247.926 18.2752L248.962 19.1131L247.285 25.6658L245.657 32.2693L244.918 29.5584C244.474 28.0801 243.685 25.1243 243.093 23.0056L242.008 19.1619L243.29 18.1267C244.474 17.1905 244.573 16.8949 244.425 13.5935L244.276 10.0955L235.055 9.94801L225.783 9.84938V13.9881C225.783 17.7328 225.882 18.1768 226.77 18.4724C227.312 18.6203 227.756 18.9648 227.756 19.1619C227.756 19.6058 224.896 29.8535 224.452 31.0369C224.156 31.8745 224.156 31.924 222.134 24.8777C221.394 22.4143 220.704 20.1478 220.605 19.8025C220.458 19.4576 220.95 18.9156 221.641 18.6199C222.824 18.0779 222.874 17.93 222.726 14.0867L222.578 10.0955L214.145 9.94801C209.559 9.89876 205.614 9.99651 205.416 10.1443C205.219 10.3414 205.071 12.1647 205.071 14.1355C205.071 17.7818 205.071 17.7821 206.649 18.4226C208.424 19.2109 208.425 19.1625 212.271 34.4861C213.504 39.5102 214.736 43.9929 215.032 44.4392C215.427 45.2276 216.315 45.3269 222.331 45.3269H229.187L230.666 40.4978ZM47.9521 84.2537C61.2672 84.2537 64.522 84.1053 65.2617 83.5633C66.0506 83.0213 66.2476 82.1838 66.2969 79.7205C66.3462 78.0451 66.4453 76.4678 66.4453 76.2215C66.4953 76.0245 67.5801 75.8767 68.9111 75.8767C72.6097 75.8767 76.2588 73.7579 77.9355 70.7029C79.0698 68.6827 79.3164 67.5987 79.3164 64.741V61.2918L82.3252 59.8132C88.0455 57.1032 88.1936 55.1811 83.1143 47.5437C79.9089 42.715 79.4155 41.7296 78.873 38.4285C77.5415 30.988 75.0263 26.208 69.7988 21.3298C66.051 17.8807 62.5988 15.9099 57.9141 14.7273C50.9607 12.9042 43.1194 13.7913 36.4619 17.0925C32.6153 19.0143 27.2392 24.5332 24.9707 28.8201C22.4065 33.7965 21.6177 36.95 21.5684 42.3699C21.5684 48.8741 22.8995 52.9153 27.2393 59.7644C29.7542 63.7555 30.001 64.9379 30.001 73.8562C30.001 80.5083 30.1489 82.2828 30.79 83.1697C31.5297 84.2536 31.5308 84.2537 47.9521 84.2537ZM190.671 35.3728C189.783 36.2598 184.112 36.1616 183.372 35.2254C182.731 34.4357 182.83 20.3933 183.521 19.3093C184.016 18.5707 188.944 18.5221 190.325 19.2117C191.164 19.7044 191.263 20.3446 191.263 27.2429C191.263 32.4649 191.065 34.9778 190.671 35.3728ZM52.1934 59.1238C51.7002 62.3759 48.9878 62.4252 48.4453 59.2224C48.1494 57.3993 48.0013 57.2516 44.7959 55.9705C40.8016 54.4431 40.7522 54.4429 39.6182 55.6746C38.5332 56.9064 36.7573 56.7584 36.5107 55.4773C36.4122 54.9845 36.7086 53.851 37.1523 53.0134C37.9905 51.4864 37.9905 51.338 36.6592 47.8894C35.3278 44.539 35.1793 44.3908 33.5029 44.2429C31.8756 44.0951 31.7275 43.9473 31.7275 42.617C31.7275 41.2866 31.8752 41.1387 33.6504 40.8924C35.4751 40.646 35.6724 40.498 36.2148 38.4285C36.5601 37.1966 37.103 35.5215 37.4482 34.6345C37.9906 33.2551 37.9903 32.9592 37.251 32.1218C36.2648 31.0379 36.1658 29.5103 37.0039 28.6726C37.8423 27.835 38.0894 27.9331 39.8154 29.3621L41.3438 30.6433L42.9219 29.658C43.8094 29.116 45.3379 28.4264 46.3242 28.1306C47.7543 27.6872 48.1987 27.2433 48.4453 26.0115C48.5933 25.1738 48.9873 24.1879 49.2832 23.7937C50.5654 22.3155 52.1934 23.4984 52.1934 25.9129C52.1934 27.3418 52.3907 27.5881 54.0674 28.0808C55.0537 28.4258 56.6314 29.116 57.5684 29.658C59.1958 30.5942 59.2456 30.5942 60.2812 29.658C61.9086 28.1798 62.4512 27.9827 63.5361 28.574C64.867 29.2638 64.7686 30.1507 63.2402 31.9734C62.0567 33.4023 62.0563 33.501 62.7959 34.6834C63.2397 35.3732 63.9795 36.9506 64.4727 38.281C65.2616 40.4981 65.4591 40.646 67.2344 40.8924C68.9604 41.0894 69.2065 41.3362 69.3545 42.4695C69.5023 43.8488 69.1075 44.0953 66.001 44.4402C65.1136 44.5388 64.7197 44.9333 64.6211 45.8201C64.5716 46.5101 64.0287 48.0865 63.4863 49.3181L62.4512 51.6345L63.4863 53.0633C64.6203 54.5412 64.5219 55.8711 63.2402 56.364C62.3526 56.709 60.5771 55.8713 60.5771 55.1814C60.5768 54.3935 59.5896 54.5911 55.8916 56.0691C52.7357 57.3501 52.4399 57.6456 52.1934 59.1238ZM46.7188 53.1121C53.8693 55.5757 61.5632 50.0575 61.5635 42.4695C61.5635 38.1335 59.837 35.1275 55.9414 32.6638C54.6099 31.7769 53.0316 31.3332 51.0098 31.1853C48.396 30.9882 47.6562 31.1361 45.2891 32.3679C43.5137 33.3042 42.083 34.5357 41.0967 35.9646C39.8146 37.8862 39.6177 38.7242 39.4697 42.1238C39.3218 45.8193 39.3717 46.2135 40.8018 48.283C42.4784 50.7958 44.2532 52.2744 46.7188 53.1121ZM123.503 87.1609L127.152 84.2039V78.6853L127.104 73.1668L124.095 70.9988C121.58 69.225 120.445 68.7815 117.092 68.1902C109.399 66.8598 108.413 66.5636 108.413 65.2332C108.413 63.8045 109.597 63.4599 113.345 63.657C115.909 63.8048 116.056 63.9033 116.5 65.4304C117.042 67.3521 117.783 67.5982 122.714 67.4011L126.413 67.2537L126.561 63.7058L126.709 60.2078L123.306 57.448L119.903 54.6883L112.062 54.7381H104.221L100.917 57.5466L97.6123 60.3552L97.5635 65.3318V70.2595L100.177 72.4763C103.727 75.5806 104.073 75.7285 110.04 76.5662C112.899 76.9602 115.512 77.4041 115.81 77.6013C116.599 78.0941 116.401 80.1636 115.514 80.5086C115.069 80.6563 113.344 80.8045 111.618 80.8045H108.512L107.328 77.3552H97.5635V84.2039L101.213 87.1609L104.862 90.1668H119.854L123.503 87.1609ZM158.912 90.0681C164.236 90.1666 166.948 90.0187 167.394 89.6248C167.887 89.2306 168.084 87.8998 168.084 85.4363C168.084 81.8885 168.035 81.7401 166.753 81.2966C164.238 80.4097 163.942 80.0157 160.786 74.1033L157.729 68.239L160.293 65.9236C161.92 64.4948 163.498 63.5085 164.632 63.3113C167.782 62.7508 168.063 62.8321 168.084 59.989V54.6883H150.824V58.7781C150.824 62.2766 150.972 62.9669 151.712 63.3611C152.501 63.7553 152.155 64.1994 149.246 66.6629L145.893 69.5203V66.7605C145.893 64.3467 146.04 63.9524 147.125 63.4597C148.309 62.9177 148.358 62.72 148.358 58.7781V54.6883H131.098V63.0164L132.824 63.3611L134.55 63.657V80.656L132.972 81.0994L131.345 81.5925V89.9197L139.432 90.0681C143.919 90.1174 147.766 89.9688 148.013 89.7224C148.259 89.4758 148.457 87.6532 148.457 85.6824C148.457 82.3811 148.358 81.9868 147.175 81.1492C145.4 79.8681 145.547 78.3407 147.618 76.3699C148.555 75.4832 149.443 74.7929 149.542 74.9402C149.641 75.0388 150.43 76.3204 151.317 77.7986L152.896 80.5086L151.811 81.2966C150.874 81.9865 150.775 82.4798 150.923 85.9783L151.07 89.9197L158.912 90.0681ZM172.424 89.6736C172.72 90.4619 190.124 90.3142 190.375 89.5261C190.523 89.0334 190.522 82.8738 190.325 81.6912C190.276 81.4941 189.487 81.1988 188.55 81.0017L186.824 80.7058L186.923 72.28L187.071 63.8543L188.501 63.5086C189.29 63.2622 190.128 62.8193 190.375 62.4744C190.77 61.7845 190.868 57.0044 190.424 55.5261C190.226 54.7873 189.387 54.6883 181.399 54.6883C176.123 54.6883 172.522 54.8858 172.424 55.1814C172.375 55.4278 172.325 57.3 172.424 59.3201C172.572 62.9171 172.622 62.9665 174.15 63.4099L175.729 63.8543L175.876 72.28L175.975 80.7058L174.298 81.0017L172.621 81.3465L172.424 85.2879C172.325 87.4558 172.375 89.427 172.424 89.6736ZM227.164 83.5633C227.263 79.3258 227.115 77.0096 226.721 76.5662C225.931 75.6302 220.212 75.6303 219.422 76.5662C219.077 76.9603 218.682 78.0446 218.534 79.03L218.238 80.8045H210.496V63.6072L212.222 63.2625C214.638 62.819 214.983 62.1292 214.835 58.2859L214.688 54.9353L205.17 54.7869L195.651 54.6883L195.8 58.7293L195.947 62.8191L197.821 63.2625L199.646 63.7556V80.7058L198.216 81.0506C195.997 81.5433 195.652 82.2827 195.8 86.323L195.947 89.9197H227.017L227.164 83.5633ZM260.551 76.1228L257.197 75.9754C255.274 75.8768 253.548 76.0742 253.153 76.3699C252.808 76.6659 252.414 77.7492 252.217 78.8328L251.921 80.8045H244.523V63.657L245.953 63.3113C246.742 63.1635 247.679 62.6713 248.024 62.2771C248.616 61.538 248.764 56.0693 248.222 55.1326C248.024 54.8862 243.833 54.6883 238.803 54.6883H229.729V63.0164L231.455 63.3611L233.181 63.657V80.7547L231.603 81.198L229.976 81.5925V89.9197H260.551V76.1228ZM289.449 86.9138L293.395 83.6619L293.247 78.6853L293.099 73.7088L289.992 71.2947C286.935 68.8802 286.688 68.7812 280.918 67.7957C274.606 66.7116 273.225 65.9725 274.557 64.3465C275.05 63.7553 276.086 63.5584 278.305 63.5584C281.411 63.5584 281.412 63.5585 282.349 65.3816L283.236 67.2537L287.329 67.4011C289.943 67.4997 291.718 67.352 292.162 66.9578C292.902 66.3657 293.148 61.2926 292.458 60.3064C292.261 60.06 290.732 58.6797 289.006 57.2508L285.899 54.6883H277.91L269.921 54.7381L266.616 57.448L263.263 60.158V70.3582L265.63 72.3289C269.427 75.4824 270.167 75.7778 275.789 76.5662C278.747 76.9602 281.36 77.5023 281.608 77.7488C281.855 77.9951 282.003 78.7343 281.904 79.3748C281.756 80.5081 281.559 80.5574 277.86 80.5574H273.915L273.521 78.9314L273.077 77.3054L268.293 77.4539L263.51 77.6013L263.361 80.8045L263.214 84.0564L266.32 86.5691C268.046 87.8995 269.921 89.2799 270.513 89.6248C271.155 89.9696 274.31 90.1668 278.551 90.1668H285.505L289.449 86.9138Z" fill="#1A1A1A"/>
</svg>
