<svg width="32" height="32" viewBox="0 0 32 32" fill="none" xmlns="http://www.w3.org/2000/svg">
<path fill-rule="evenodd" clip-rule="evenodd" d="M24.0002 20.8438V14.3854C24.0002 10.42 21.8268 7.10042 18.0002 6.22208V5.34375C18.0002 4.27167 17.1068 3.40625 16.0002 3.40625C14.8935 3.40625 14.0002 4.27167 14.0002 5.34375V6.22208C10.1868 7.10042 8.00016 10.4071 8.00016 14.3854V20.8438L5.3335 23.4271V24.7188H26.6668V23.4271L24.0002 20.8438ZM16.0002 28.5938C17.4668 28.5938 18.6668 27.4312 18.6668 26.0104H13.3335C13.3335 27.4312 14.5335 28.5938 16.0002 28.5938ZM10.6668 22.1354H21.3335V14.3854C21.3335 11.1821 19.3202 8.57292 16.0002 8.57292C12.6802 8.57292 10.6668 11.1821 10.6668 14.3854V22.1354Z" fill="#1A1A1A"/>
</svg>
