<svg width="32" height="32" viewBox="0 0 32 32" fill="none" xmlns="http://www.w3.org/2000/svg">
<path fill-rule="evenodd" clip-rule="evenodd" d="M15.9998 3.08301C8.63984 3.08301 2.6665 8.86967 2.6665 15.9997C2.6665 23.1297 8.63984 28.9163 15.9998 28.9163C23.3598 28.9163 29.3332 23.1297 29.3332 15.9997C29.3332 8.86967 23.3598 3.08301 15.9998 3.08301ZM9.4265 24.1113C9.99984 22.9488 13.4932 21.8122 15.9998 21.8122C18.5065 21.8122 22.0132 22.9488 22.5732 24.1113C20.7598 25.5063 18.4798 26.333 15.9998 26.333C13.5198 26.333 11.2398 25.5063 9.4265 24.1113ZM15.9998 19.2288C17.9465 19.2288 22.5732 19.9909 24.4798 22.2384C25.8398 20.5076 26.6665 18.3505 26.6665 15.9997C26.6665 10.3034 21.8798 5.66634 15.9998 5.66634C10.1198 5.66634 5.33317 10.3034 5.33317 15.9997C5.33317 18.3505 6.15984 20.5076 7.51984 22.2384C9.4265 19.9909 14.0532 19.2288 15.9998 19.2288ZM15.9998 8.24967C13.4132 8.24967 11.3332 10.2647 11.3332 12.7705C11.3332 15.2763 13.4132 17.2913 15.9998 17.2913C18.5865 17.2913 20.6665 15.2763 20.6665 12.7705C20.6665 10.2647 18.5865 8.24967 15.9998 8.24967ZM13.9998 12.7705C13.9998 13.8426 14.8932 14.708 15.9998 14.708C17.1065 14.708 17.9998 13.8426 17.9998 12.7705C17.9998 11.6984 17.1065 10.833 15.9998 10.833C14.8932 10.833 13.9998 11.6984 13.9998 12.7705Z" fill="#1A1A1A"/>
</svg>
